# xmcd
#
# Track frame offsets:
#	150
#	12472
#	26595
#	42375
#	58905
#	75067
#	91390
#	106675
#	121137
#	139222
#	153377
#	166145
#
# Disc length: 2430 seconds
#
# Revision: 2
# Processed by: cddbd v1.5.2PL0 Copyright (c) Steve Scherf et al.
# Submitted via: EasyCDDAExtractor 15.3.0.1
#
DISCID=8b097c0c
DTITLE=Tarja Lunnas - Rakkautes Sun
DYEAR=1999
DGENRE=Suomi Iskelmä
TTITLE0=Sydämeni Tuulet Soi
TTITLE1=Rakkautes Sun
TTITLE2=Jonain Tähtisenä Yönä
TTITLE3=Balalaika  ( Balalaika's )
TTITLE4=On Se Niin Haikeaa
TTITLE5=Hän On Yö
TTITLE6=On Elämän Tarkoitus Rakkaus
TTITLE7=Kuumat Huulet
TTITLE8=Meidän Yö
TTITLE9=Keskiyön Pikajuna
TTITLE10=Naura Kun Sua Naurattaa
TTITLE11=Villi Nuoruus
EXTD=
EXTT0=
EXTT1=
EXTT2=
EXTT3=
EXTT4=
EXTT5=
EXTT6=
EXTT7=
EXTT8=
EXTT9=
EXTT10=
EXTT11=
PLAYORDER=
